<svg width="1890" height="945" xmlns="http://www.w3.org/2000/svg" xmlns:xlink="http://www.w3.org/1999/xlink" overflow="hidden"><defs><clipPath id="clip0"><rect x="0" y="0" width="1890" height="945"/></clipPath></defs><g clip-path="url(#clip0)"><rect x="0" y="0" width="1890" height="945.083" fill="#FFFFFF"/><rect x="362.5" y="52.5979" width="258.907" height="759.974" fill="#FFFFCC"/><path d="M621.407 52.5979 640.5 33.5029 640.5 793.477 621.407 812.572Z" fill="#CDCDA4" fill-rule="evenodd"/><path d="M362.5 52.5979 381.593 33.5029 640.5 33.5029 621.407 52.5979Z" fill="#FFFFD6" fill-rule="evenodd"/><path d="M362.5 52.5979 381.593 33.5029 640.5 33.5029 640.5 793.477 621.407 812.572 362.5 812.572ZM362.5 52.5979 621.407 52.5979 640.5 33.5029M621.407 52.5979 621.407 812.572" stroke="#000000" stroke-width="1.33345" stroke-miterlimit="8" fill="none" fill-rule="evenodd"/><text font-family="Calibri,Calibri_MSFontService,sans-serif" font-weight="700" font-size="18.67" transform="matrix(1 0 0 1.00009 447.703 74)">&lt;&lt;device&gt;&gt;</text><text font-family="Calibri,Calibri_MSFontService,sans-serif" font-weight="700" font-size="18.67" transform="matrix(1 0 0 1.00009 433.761 97)">:Arduino Mega</text><rect x="373.5" y="120.511" width="234" height="669.059" stroke="#7F7F7F" stroke-width="1.33345" stroke-linejoin="round" stroke-miterlimit="10" fill="#FDEADA"/><rect x="382" y="300.026" width="169" height="51.0045" stroke="#595959" stroke-width="2.00018" stroke-linejoin="round" stroke-miterlimit="10" fill="#DBEEF4"/><text font-family="Calibri,Calibri_MSFontService,sans-serif" font-weight="700" font-size="18.67" transform="matrix(1 0 0 1.00009 410.964 320)">Motor Control</text><text font-family="Calibri,Calibri_MSFontService,sans-serif" font-weight="700" font-size="18.67" transform="matrix(1 0 0 1.00009 442.426 343)">Driver</text><rect x="88.5" y="294.952" width="117.574" height="73.5807" fill="#FFFFCC"/><path d="M206.074 294.952 211.5 289.526 211.5 363.106 206.074 368.533Z" fill="#CDCDA4" fill-rule="evenodd"/><path d="M88.5 294.952 93.9258 289.526 211.5 289.526 206.074 294.952Z" fill="#FFFFD6" fill-rule="evenodd"/><path d="M88.5 294.952 93.9258 289.526 211.5 289.526 211.5 363.106 206.074 368.533 88.5 368.533ZM88.5 294.952 206.074 294.952 211.5 289.526M206.074 294.952 206.074 368.533" stroke="#000000" stroke-width="1.33345" stroke-miterlimit="8" fill="none" fill-rule="evenodd"/><text font-family="Calibri,Calibri_MSFontService,sans-serif" font-weight="700" font-size="18.67" transform="matrix(1 0 0 1.00009 103.247 326)">&lt;&lt;device&gt;&gt;</text><text font-family="Calibri,Calibri_MSFontService,sans-serif" font-weight="700" font-size="18.67" transform="matrix(1 0 0 1.00009 119.629 349)">:Motor</text><path d="M0.0020943-0.833404 139.786-0.482135 139.782 1.18467-0.0020943 0.833404ZM132.215-5.05473 141.436 0.355422 132.188 5.71916C131.79 5.95008 131.28 5.8145 131.049 5.41634 130.818 5.01818 130.954 4.50821 131.352 4.27729L139.364-0.369667 139.361 1.07009 131.372-3.61708C130.975-3.85 130.842-4.36065 131.075-4.75764 131.308-5.15463 131.818-5.28764 132.215-5.05473Z" transform="matrix(-1 0 0 1.00009 354.433 524.046)"/><text font-family="Calibri,Calibri_MSFontService,sans-serif" font-weight="400" font-size="18.67" transform="matrix(1 0 0 1.00009 257.375 294)">Direction,</text><text font-family="Calibri,Calibri_MSFontService,sans-serif" font-weight="400" font-size="18.67" transform="matrix(1 0 0 1.00009 234.833 317)">Speed via PWM</text><rect x="537" y="292.026" width="16.0001" height="28.0024" stroke="#000000" stroke-width="2.00018" stroke-linejoin="round" stroke-miterlimit="10" fill="#FFFFFF"/><rect x="541" y="298.026" width="15.9999" height="5.00037" stroke="#000000" stroke-width="2.00018" stroke-linejoin="round" stroke-miterlimit="10" fill="#FFFFFF"/><rect x="541" y="309.027" width="15.9999" height="5.00046" stroke="#000000" stroke-width="2.00018" stroke-linejoin="round" stroke-miterlimit="10" fill="#FFFFFF"/><rect x="381" y="509.045" width="169" height="54.0048" stroke="#595959" stroke-width="2.00018" stroke-linejoin="round" stroke-miterlimit="10" fill="#DBEEF4"/><text font-family="Calibri,Calibri_MSFontService,sans-serif" font-weight="700" font-size="18.67" transform="matrix(1 0 0 1.00009 405.421 531)">Color Detection</text><text font-family="Calibri,Calibri_MSFontService,sans-serif" font-weight="700" font-size="18.67" transform="matrix(1 0 0 1.00009 437.937 554)">Tracker</text><rect x="537" y="500.044" width="16.0001" height="28.0025" stroke="#000000" stroke-width="2.00018" stroke-linejoin="round" stroke-miterlimit="10" fill="#FFFFFF"/><rect x="541" y="506.045" width="15.9999" height="5.00046" stroke="#000000" stroke-width="2.00018" stroke-linejoin="round" stroke-miterlimit="10" fill="#FFFFFF"/><rect x="541" y="517.046" width="15.9999" height="5.00049" stroke="#000000" stroke-width="2.00018" stroke-linejoin="round" stroke-miterlimit="10" fill="#FFFFFF"/><rect x="736.5" y="153.829" width="207.684" height="379.718" fill="#FFFFCC"/><path d="M944.184 153.829 959.5 138.512 959.5 518.23 944.184 533.547Z" fill="#CDCDA4" fill-rule="evenodd"/><path d="M736.5 153.829 751.816 138.512 959.5 138.512 944.184 153.829Z" fill="#FFFFD6" fill-rule="evenodd"/><path d="M736.5 153.829 751.816 138.512 959.5 138.512 959.5 518.23 944.184 533.547 736.5 533.547ZM736.5 153.829 944.184 153.829 959.5 138.512M944.184 153.829 944.184 533.547" stroke="#000000" stroke-width="1.33345" stroke-miterlimit="8" fill="none" fill-rule="evenodd"/><text font-family="Calibri,Calibri_MSFontService,sans-serif" font-weight="700" font-size="18.67" transform="matrix(1 0 0 1.00009 796.229 176)">&lt;&lt;device&gt;&gt;</text><text font-family="Calibri,Calibri_MSFontService,sans-serif" font-weight="700" font-size="18.67" transform="matrix(1 0 0 1.00009 788.475 199)">:Raspberry Pi</text><rect x="745.5" y="211.519" width="187" height="306.027" stroke="#7F7F7F" stroke-width="1.33345" stroke-linejoin="round" stroke-miterlimit="10" fill="#FDEADA"/><text font-family="Calibri,Calibri_MSFontService,sans-serif" font-weight="700" font-size="18.67" transform="matrix(1 0 0 1.00009 786.869 233)">alex_main.py</text><rect x="1122.5" y="93.6697" width="693.839" height="598.891" fill="#FFFFCC"/><path d="M1816.34 93.6697 1860.5 49.5044 1860.5 648.396 1816.34 692.561Z" fill="#CDCDA4" fill-rule="evenodd"/><path d="M1122.5 93.6697 1166.66 49.5044 1860.5 49.5044 1816.34 93.6697Z" fill="#FFFFD6" fill-rule="evenodd"/><path d="M1122.5 93.6697 1166.66 49.5044 1860.5 49.5044 1860.5 648.396 1816.34 692.561 1122.5 692.561ZM1122.5 93.6697 1816.34 93.6697 1860.5 49.5044M1816.34 93.6697 1816.34 692.561" stroke="#000000" stroke-width="1.33345" stroke-miterlimit="8" fill="none" fill-rule="evenodd"/><text font-family="Calibri,Calibri_MSFontService,sans-serif" font-weight="700" font-size="18.67" transform="matrix(1 0 0 1.00009 1425.17 115)">&lt;&lt;device&gt;&gt;</text><text font-family="Calibri,Calibri_MSFontService,sans-serif" font-weight="700" font-size="18.67" transform="matrix(1 0 0 1.00009 1396.39 138)">:Operator’s Laptop</text><rect x="1138.5" y="155.514" width="651" height="518.046" stroke="#7F7F7F" stroke-width="1.33345" stroke-linejoin="round" stroke-miterlimit="10" fill="#FDEADA"/><text font-family="Calibri,Calibri_MSFontService,sans-serif" font-weight="700" font-size="18.67" transform="matrix(1 0 0 1.00009 1410.11 176)">alex_client.py</text><rect x="779.5" y="615.538" width="109.017" height="54.0213" fill="#FFFFCC"/><path d="M888.517 615.538 892.5 611.554 892.5 665.575 888.517 669.559Z" fill="#CDCDA4" fill-rule="evenodd"/><path d="M779.5 615.538 783.483 611.554 892.5 611.554 888.517 615.538Z" fill="#FFFFD6" fill-rule="evenodd"/><path d="M779.5 615.538 783.483 611.554 892.5 611.554 892.5 665.575 888.517 669.559 779.5 669.559ZM779.5 615.538 888.517 615.538 892.5 611.554M888.517 615.538 888.517 669.559" stroke="#000000" stroke-width="1.33345" stroke-miterlimit="8" fill="none" fill-rule="evenodd"/><text font-family="Calibri,Calibri_MSFontService,sans-serif" font-weight="700" font-size="18.67" transform="matrix(1 0 0 1.00009 789.745 636)">&lt;&lt;device&gt;&gt;</text><text font-family="Calibri,Calibri_MSFontService,sans-serif" font-weight="700" font-size="18.67" transform="matrix(1 0 0 1.00009 807.919 659)">:LiDAR</text><path d="M837.097 611.457 837 508.045" stroke="#000000" stroke-width="2.00018" stroke-linejoin="round" stroke-miterlimit="10" fill="none" fill-rule="evenodd"/><rect x="755" y="453.04" width="164" height="55.0048" stroke="#595959" stroke-width="2.00018" stroke-linejoin="round" stroke-miterlimit="10" fill="#DBEEF4"/><text font-family="Calibri,Calibri_MSFontService,sans-serif" font-weight="700" font-size="18.67" transform="matrix(1 0 0 1.00009 771.5 486)">LiDAR Scan Node</text><path d="M0.833407-1.66919e-05 0.834529 56.0155-0.832285 56.0155-0.833407 1.66919e-05ZM5.38793 48.4346 0.00115489 57.6695-5.38599 48.4348C-5.61792 48.0373-5.48363 47.527-5.08606 47.295-4.68849 47.0631-4.17817 47.1974-3.94625 47.595L0.720993 55.5956-0.718766 55.5956 3.94815 47.5948C4.18007 47.1972 4.69037 47.0629 5.08796 47.2948 5.48554 47.5267 5.61984 48.0371 5.38793 48.4346Z" transform="matrix(-1 0 0 1.00009 852.001 548.048)"/><text font-family="Calibri,Calibri_MSFontService,sans-serif" font-weight="400" font-size="18.67" transform="matrix(1 0 0 1.00009 864.776 582)">Start Scan</text><text font-family="Calibri,Calibri_MSFontService,sans-serif" font-weight="400" font-size="18.67" transform="matrix(1 0 0 1.00009 740.044 582)">Scan Data</text><path d="M0.833407-1.57277e-06 0.833509 53.9871-0.833305 53.9871-0.833407 1.57277e-06ZM5.38705 46.4063 0.000105078 55.6411-5.38687 46.4063C-5.61879 46.0088-5.4845 45.4984-5.08692 45.2665-4.68934 45.0346-4.17903 45.1689-3.94711 45.5665L0.71998 53.5672-0.719778 53.5672 3.94728 45.5665C4.1792 45.1689 4.68951 45.0346 5.08709 45.2665 5.48467 45.4984 5.61897 46.0087 5.38705 46.4063Z" transform="matrix(1 0 0 -1.00009 822 603.69)"/><rect x="755" y="243.021" width="165" height="54.0048" stroke="#595959" stroke-width="2.00018" stroke-linejoin="round" stroke-miterlimit="10" fill="#DBEEF4"/><text font-family="Calibri,Calibri_MSFontService,sans-serif" font-weight="700" font-size="18.67" transform="matrix(1 0 0 1.00009 769.72 265)">Arduino Interface</text><text font-family="Calibri,Calibri_MSFontService,sans-serif" font-weight="700" font-size="18.67" transform="matrix(1 0 0 1.00009 816.677 288)">Node</text><rect x="779" y="315.028" width="140" height="53.0047" stroke="#595959" stroke-width="2.00018" stroke-linejoin="round" stroke-miterlimit="10" fill="#DBEEF4"/><text font-family="Calibri,Calibri_MSFontService,sans-serif" font-weight="700" font-size="18.67" transform="matrix(1 0 0 1.00009 804.308 337)">TLS Receive</text><text font-family="Calibri,Calibri_MSFontService,sans-serif" font-weight="700" font-size="18.67" transform="matrix(1 0 0 1.00009 828.17 360)">Node</text><rect x="755" y="390.034" width="164" height="36.0032" stroke="#595959" stroke-width="2.00018" stroke-linejoin="round" stroke-miterlimit="10" fill="#DBEEF4"/><text font-family="Calibri,Calibri_MSFontService,sans-serif" font-weight="700" font-size="18.67" transform="matrix(1 0 0 1.00009 780.227 412)">TLS Send Node</text><rect x="1145" y="246.022" width="347" height="34.0031" stroke="#595959" stroke-width="2.00018" stroke-linejoin="round" stroke-miterlimit="10" fill="#DBEEF4"/><text font-family="Calibri,Calibri_MSFontService,sans-serif" font-weight="700" font-size="18.67" transform="matrix(1 0 0 1.00009 1244.72 268)">TLS Receive Thread</text><rect x="1145" y="193.017" width="347" height="33.0029" stroke="#595959" stroke-width="2.00018" stroke-linejoin="round" stroke-miterlimit="10" fill="#DBEEF4"/><text font-family="Calibri,Calibri_MSFontService,sans-serif" font-weight="700" font-size="18.67" transform="matrix(1 0 0 1.00009 1254.88 215)">TLS Send Thread</text><path d="M1.00009-3.84632e-06 1.00017 20.633-1.00001 20.633-1.00009 3.84632e-06ZM4.00043 19.2995 0.000104996 27.3003-4.00028 19.2996Z" transform="matrix(1 0 0 -1.00009 837 453.34)"/><path d="M0.541053-0.841093 220.649 140.748 219.567 142.431-0.541053 0.841093ZM221.15 137.504 225.715 145.197 216.822 144.232Z" transform="matrix(1 0 0 -1.00009 919 408.233)"/><text font-family="Courier New,Courier New_MSFontService,sans-serif" font-weight="400" font-size="16.0028" transform="matrix(1 0 0 1.00009 1267.3 405)">STATUS/</text><text font-family="Courier New,Courier New_MSFontService,sans-serif" font-weight="400" font-size="16.0028" transform="matrix(1 0 0 1.00009 1267.3 424)">COMMAND/</text><text font-family="Courier New,Courier New_MSFontService,sans-serif" font-weight="400" font-size="16.0028" transform="matrix(1 0 0 1.00009 1267.3 444)">LIDAR_MESSAGE</text><text font-family="Calibri,Calibri_MSFontService,sans-serif" font-weight="400" font-size="18.67" transform="matrix(1 0 0 1.00009 1267.3 466)">Packet</text><path d="M0.505609-0.862865 220.017 127.763 219.006 129.489-0.505609 0.862865ZM220.384 124.501 225.264 131.997 216.339 131.404Z" transform="matrix(-1 0 0 1.00009 1144.26 209.018)"/><text font-family="Courier New,Courier New_MSFontService,sans-serif" font-weight="400" font-size="16.0028" transform="matrix(1 0 0 1.00009 993.095 243)">COMMAND</text><text font-family="Calibri,Calibri_MSFontService,sans-serif" font-weight="400" font-size="18.67" transform="matrix(1 0 0 1.00009 993.095 266)">Packet</text><rect x="1145" y="299.026" width="637" height="246.022" stroke="#595959" stroke-width="2.00018" stroke-linejoin="round" stroke-miterlimit="10" fill="#DBEEF4"/><text font-family="Calibri,Calibri_MSFontService,sans-serif" font-weight="700" font-size="18.67" transform="matrix(1 0 0 1.00009 1425.49 321)">Gui Thread</text><rect x="1469" y="626.055" width="313" height="40.0036" stroke="#595959" stroke-width="2.00018" stroke-linejoin="round" stroke-miterlimit="10" fill="#DBEEF4"/><text font-family="Calibri,Calibri_MSFontService,sans-serif" font-weight="700" font-size="18.67" transform="matrix(1 0 0 1.00009 1546.13 652)">HectorSLAM Process</text><rect x="1147" y="626.055" width="312" height="40.0036" stroke="#595959" stroke-width="2.00018" stroke-linejoin="round" stroke-miterlimit="10" fill="#DBEEF4"/><text font-family="Calibri,Calibri_MSFontService,sans-serif" font-weight="700" font-size="18.67" transform="matrix(1 0 0 1.00009 1223.49 652)">BreezySLAM Process</text><path d="M1.00009-5.38577e-06 1.00016 12.8296-1.00002 12.8296-1.00009 5.38577e-06ZM4.00041 11.4961 0.000104996 19.4968-4.00029 11.4962Z" transform="matrix(1 0 0 -1.00009 849 314.525)"/><path d="M766 297.026 766 383.445 764 383.445 764 297.026ZM769 382.112 765 390.113 761 382.112Z"/><rect x="87.5" y="505.97" width="116.574" height="73.5808" fill="#FFFFCC"/><path d="M204.074 505.97 209.5 500.544 209.5 574.125 204.074 579.551Z" fill="#CDCDA4" fill-rule="evenodd"/><path d="M87.5 505.97 92.9257 500.544 209.5 500.544 204.074 505.97Z" fill="#FFFFD6" fill-rule="evenodd"/><path d="M87.5 505.97 92.9257 500.544 209.5 500.544 209.5 574.125 204.074 579.551 87.5 579.551ZM87.5 505.97 204.074 505.97 209.5 500.544M204.074 505.97 204.074 579.551" stroke="#000000" stroke-width="1.33345" stroke-miterlimit="8" fill="none" fill-rule="evenodd"/><text font-family="Calibri,Calibri_MSFontService,sans-serif" font-weight="700" font-size="18.67" transform="matrix(1 0 0 1.00009 101.524 526)">&lt;&lt;device&gt;&gt;</text><text font-family="Calibri,Calibri_MSFontService,sans-serif" font-weight="700" font-size="18.67" transform="matrix(1 0 0 1.00009 121.98 549)">:Color</text><text font-family="Calibri,Calibri_MSFontService,sans-serif" font-weight="700" font-size="18.67" transform="matrix(1 0 0 1.00009 118.979 571)">Sensor</text><rect x="87.5" y="405.961" width="116.574" height="73.5808" fill="#FFFFCC"/><path d="M204.074 405.961 209.5 400.535 209.5 474.116 204.074 479.542Z" fill="#CDCDA4" fill-rule="evenodd"/><path d="M87.5 405.961 92.9257 400.535 209.5 400.535 204.074 405.961Z" fill="#FFFFD6" fill-rule="evenodd"/><path d="M87.5 405.961 92.9257 400.535 209.5 400.535 209.5 474.116 204.074 479.542 87.5 479.542ZM87.5 405.961 204.074 405.961 209.5 400.535M204.074 405.961 204.074 479.542" stroke="#000000" stroke-width="1.33345" stroke-miterlimit="8" fill="none" fill-rule="evenodd"/><text font-family="Calibri,Calibri_MSFontService,sans-serif" font-weight="700" font-size="18.67" transform="matrix(1 0 0 1.00009 101.981 426)">&lt;&lt;device&gt;&gt;</text><text font-family="Calibri,Calibri_MSFontService,sans-serif" font-weight="700" font-size="18.67" transform="matrix(1 0 0 1.00009 117.855 449)">:Wheel</text><text font-family="Calibri,Calibri_MSFontService,sans-serif" font-weight="700" font-size="18.67" transform="matrix(1 0 0 1.00009 103.067 471)">Encoder x2</text><rect x="88.5" y="608.911" width="116.643" height="72.6494" fill="#FFFFCC"/><path d="M205.143 608.911 210.5 603.553 210.5 676.203 205.143 681.56Z" fill="#CDCDA4" fill-rule="evenodd"/><path d="M88.5 608.911 93.857 603.553 210.5 603.553 205.143 608.911Z" fill="#FFFFD6" fill-rule="evenodd"/><path d="M88.5 608.911 93.857 603.553 210.5 603.553 210.5 676.203 205.143 681.56 88.5 681.56ZM88.5 608.911 205.143 608.911 210.5 603.553M205.143 608.911 205.143 681.56" stroke="#000000" stroke-width="1.33345" stroke-miterlimit="8" fill="none" fill-rule="evenodd"/><text font-family="Calibri,Calibri_MSFontService,sans-serif" font-weight="700" font-size="18.67" transform="matrix(1 0 0 1.00009 102.739 639)">&lt;&lt;device&gt;&gt;</text><text font-family="Calibri,Calibri_MSFontService,sans-serif" font-weight="700" font-size="18.67" transform="matrix(1 0 0 1.00009 110.867 662)">:Servo x2</text><rect x="39.5" y="718.92" width="168.643" height="72.6495" fill="#FFFFCC"/><path d="M208.143 718.92 213.5 713.563 213.5 786.212 208.143 791.57Z" fill="#CDCDA4" fill-rule="evenodd"/><path d="M39.5 718.92 44.857 713.563 213.5 713.563 208.143 718.92Z" fill="#FFFFD6" fill-rule="evenodd"/><path d="M39.5 718.92 44.857 713.563 213.5 713.563 213.5 786.212 208.143 791.57 39.5 791.57ZM39.5 718.92 208.143 718.92 213.5 713.563M208.143 718.92 208.143 791.57" stroke="#000000" stroke-width="1.33345" stroke-miterlimit="8" fill="none" fill-rule="evenodd"/><text font-family="Calibri,Calibri_MSFontService,sans-serif" font-weight="700" font-size="18.67" transform="matrix(1 0 0 1.00009 79.8128 738)">&lt;&lt;device&gt;&gt;</text><text font-family="Calibri,Calibri_MSFontService,sans-serif" font-weight="700" font-size="18.67" transform="matrix(1 0 0 1.00009 50.5902 761)">:Infrared Proximity</text><text font-family="Calibri,Calibri_MSFontService,sans-serif" font-weight="700" font-size="18.67" transform="matrix(1 0 0 1.00009 97.2676 783)">Sensor</text><path d="M0.00160254-1.00009 164.483-0.736521 164.48 1.26365-0.00160254 1.00009ZM163.155-3.73892 171.149 0.27425 163.142 4.26178Z" transform="matrix(-1 0 0 1.00009 382.149 326.029)"/><path d="M0 0 172.443 0.357092" stroke="#000000" stroke-width="2.00018" stroke-linejoin="round" stroke-miterlimit="10" fill="none" fill-rule="evenodd" transform="matrix(1 0 0 -1.00009 209 536.404)"/><path d="M216.002 549.215 353.832 549.509 353.829 551.176 215.998 550.882ZM346.261 544.939 355.484 550.346 346.238 555.713C345.84 555.945 345.33 555.809 345.099 555.411 344.868 555.013 345.003 554.503 345.401 554.272L353.412 549.621 353.409 551.061 345.418 546.377C345.021 546.144 344.888 545.633 345.121 545.236 345.353 544.839 345.864 544.706 346.261 544.939Z"/><text font-family="Calibri,Calibri_MSFontService,sans-serif" font-weight="400" font-size="18.67" transform="matrix(1 0 0 1.00009 237.018 495)">RGB Channel</text><text font-family="Calibri,Calibri_MSFontService,sans-serif" font-weight="400" font-size="18.67" transform="matrix(1 0 0 1.00009 263.347 518)">Select</text><text font-family="Calibri,Calibri_MSFontService,sans-serif" font-weight="400" font-size="18.67" transform="matrix(1 0 0 1.00009 229.662 577)">Color Intensity</text><text font-family="Calibri,Calibri_MSFontService,sans-serif" font-weight="400" font-size="18.67" transform="matrix(1 0 0 1.00009 239.763 600)">(Frequency)</text><rect x="382" y="409.036" width="169" height="54.0048" stroke="#595959" stroke-width="2.00018" stroke-linejoin="round" stroke-miterlimit="10" fill="#DBEEF4"/><text font-family="Calibri,Calibri_MSFontService,sans-serif" font-weight="700" font-size="18.67" transform="matrix(1 0 0 1.00009 405.634 431)">Distance Wheel</text><text font-family="Calibri,Calibri_MSFontService,sans-serif" font-weight="700" font-size="18.67" transform="matrix(1 0 0 1.00009 408.947 454)">Turned Tracker</text><rect x="536" y="399.035" width="15.9999" height="27.0023" stroke="#000000" stroke-width="2.00018" stroke-linejoin="round" stroke-miterlimit="10" fill="#FFFFFF"/><rect x="540" y="404.036" width="16.0001" height="5.00037" stroke="#000000" stroke-width="2.00018" stroke-linejoin="round" stroke-miterlimit="10" fill="#FFFFFF"/><rect x="540" y="415.037" width="16.0001" height="5.00046" stroke="#000000" stroke-width="2.00018" stroke-linejoin="round" stroke-miterlimit="10" fill="#FFFFFF"/><path d="M0.00260526-1.00008 165.519-0.568909 165.514 1.43126-0.00260526 1.00008ZM164.193-3.57264 172.183 0.448543 164.172 4.42804Z" transform="matrix(1 0 0 -1.00009 209 436.487)"/><text font-family="Calibri,Calibri_MSFontService,sans-serif" font-weight="400" font-size="18.67" transform="matrix(1 0 0 1.00009 244.969 408)">Encoder Tick</text><text font-family="Calibri,Calibri_MSFontService,sans-serif" font-weight="400" font-size="18.67" transform="matrix(1 0 0 1.00009 269.145 431)">Pulses</text><rect x="381" y="613.054" width="169" height="53.0048" stroke="#595959" stroke-width="2.00018" stroke-linejoin="round" stroke-miterlimit="10" fill="#DBEEF4"/><text font-family="Calibri,Calibri_MSFontService,sans-serif" font-weight="700" font-size="18.67" transform="matrix(1 0 0 1.00009 396.857 645)">Servo Claw Driver</text><rect x="536" y="602.053" width="15.9999" height="27.0024" stroke="#000000" stroke-width="2.00018" stroke-linejoin="round" stroke-miterlimit="10" fill="#FFFFFF"/><rect x="540" y="608.054" width="16.0001" height="5.00049" stroke="#000000" stroke-width="2.00018" stroke-linejoin="round" stroke-miterlimit="10" fill="#FFFFFF"/><rect x="540" y="618.055" width="16.0001" height="6.00055" stroke="#000000" stroke-width="2.00018" stroke-linejoin="round" stroke-miterlimit="10" fill="#FFFFFF"/><path d="M380.76 640.305 216.666 640.066 216.669 638.066 380.763 638.305ZM217.995 643.069 210 639.056 218.007 635.067Z"/><text font-family="Calibri,Calibri_MSFontService,sans-serif" font-weight="400" font-size="18.67" transform="matrix(1 0 0 1.00009 235.443 664)">Angle via PWM</text><rect x="382" y="722.064" width="169" height="54.0047" stroke="#595959" stroke-width="2.00018" stroke-linejoin="round" stroke-miterlimit="10" fill="#DBEEF4"/><text font-family="Calibri,Calibri_MSFontService,sans-serif" font-weight="700" font-size="18.67" transform="matrix(1 0 0 1.00009 412.064 744)">Distance from</text><text font-family="Calibri,Calibri_MSFontService,sans-serif" font-weight="700" font-size="18.67" transform="matrix(1 0 0 1.00009 397.416 767)">Astronaut Tracker</text><rect x="538" y="712.063" width="16.0001" height="27.0023" stroke="#000000" stroke-width="2.00018" stroke-linejoin="round" stroke-miterlimit="10" fill="#FFFFFF"/><rect x="542" y="717.063" width="15.9999" height="6.00055" stroke="#000000" stroke-width="2.00018" stroke-linejoin="round" stroke-miterlimit="10" fill="#FFFFFF"/><rect x="542" y="728.064" width="15.9999" height="5.00037" stroke="#000000" stroke-width="2.00018" stroke-linejoin="round" stroke-miterlimit="10" fill="#FFFFFF"/><path d="M213 749.066 381.689 749.373" stroke="#000000" stroke-width="2.00018" stroke-linejoin="round" stroke-miterlimit="10" fill="none" fill-rule="evenodd"/><text font-family="Calibri,Calibri_MSFontService,sans-serif" font-weight="400" font-size="18.67" transform="matrix(1 0 0 1.00009 232.677 781)">Distance via I2C</text><text font-family="Calibri,Calibri_MSFontService,sans-serif" font-weight="400" font-size="18.67" transform="matrix(1 0 0 1.00009 221.744 707)">Initiate Acquisition</text><text font-family="Calibri,Calibri_MSFontService,sans-serif" font-weight="400" font-size="18.67" transform="matrix(1 0 0 1.00009 267.981 730)">via I2C</text><path d="M5.55103e-07-0.833407 155.987-0.833303 155.987 0.833511-5.55103e-07 0.833407ZM148.406-5.38686 157.64 0.000104696 148.406 5.38706C148.008 5.61898 147.498 5.48468 147.266 5.08711 147.034 4.68953 147.168 4.17922 147.566 3.9473L155.566-0.719776 155.566 0.719983 147.566-3.9471C147.168-4.17902 147.034-4.68933 147.266-5.08691 147.498-5.48449 148.008-5.61878 148.406-5.38686Z" transform="matrix(-1 0 0 1.00009 374.637 739.065)"/><path d="M220 757.233 372.953 757.233 372.953 758.9 220 758.9ZM365.372 752.68 374.607 758.067 365.372 763.454C364.975 763.686 364.464 763.552 364.232 763.154 364 762.757 364.135 762.246 364.532 762.014L372.533 757.347 372.533 758.787 364.532 754.119C364.135 753.887 364 753.377 364.232 752.979 364.464 752.582 364.975 752.448 365.372 752.68Z"/><rect x="382" y="128.011" width="213" height="54.0048" stroke="#595959" stroke-width="2.00018" stroke-linejoin="round" stroke-miterlimit="10" fill="#DBEEF4"/><text font-family="Calibri,Calibri_MSFontService,sans-serif" font-weight="700" font-size="18.67" transform="matrix(1 0 0 1.00009 432.532 149)">UART Driver &amp;</text><text font-family="Calibri,Calibri_MSFontService,sans-serif" font-weight="700" font-size="18.67" transform="matrix(1 0 0 1.00009 401.282 172)">Serializer/ Deserializer</text><rect x="582" y="117.01" width="16.0001" height="28.0024" stroke="#000000" stroke-width="2.00018" stroke-linejoin="round" stroke-miterlimit="10" fill="#FFFFFF"/><rect x="586" y="123.011" width="15.9999" height="5.00035" stroke="#000000" stroke-width="2.00018" stroke-linejoin="round" stroke-miterlimit="10" fill="#FFFFFF"/><rect x="586" y="134.012" width="15.9999" height="5.00046" stroke="#000000" stroke-width="2.00018" stroke-linejoin="round" stroke-miterlimit="10" fill="#FFFFFF"/><path d="M600.995 158.097 750.472 265.691 749.304 267.314 599.827 159.721ZM599.157 162.935 595 155.014 603.831 156.441ZM751.143 262.476 755.299 270.398 746.469 268.97Z"/><rect x="1541.5" y="357.531" width="228" height="39.0034" stroke="#7F7F7F" stroke-width="1.33345" stroke-linejoin="round" stroke-miterlimit="10" fill="#FFFFFF"/><text font-family="Calibri,Calibri_MSFontService,sans-serif" font-weight="700" font-size="18.67" transform="matrix(1 0 0 1.00009 1561.64 382)">Keyboard Event Handler</text><rect x="1189.5" y="418.537" width="580" height="39.0034" stroke="#7F7F7F" stroke-width="1.33345" stroke-linejoin="round" stroke-miterlimit="10" fill="#FFFFFF"/><text font-family="Calibri,Calibri_MSFontService,sans-serif" font-weight="700" font-size="18.67" transform="matrix(1 0 0 1.00009 1403.05 443)">Sensor Data Viewer</text><rect x="1156.5" y="483.543" width="613" height="40.0036" stroke="#7F7F7F" stroke-width="1.33345" stroke-linejoin="round" stroke-miterlimit="10" fill="#FFFFFF"/><text font-family="Calibri,Calibri_MSFontService,sans-serif" font-weight="700" font-size="18.67" transform="matrix(1 0 0 1.00009 1380.91 509)">SLAM Map Visualizer</text><path d="M1761.95 355.33 1762.49 355.33 1761.49 356.33 1761.49 209.018 1762.49 210.019 1498.67 210.019 1498.67 208.018 1762.49 208.018C1763.04 208.018 1763.49 208.466 1763.49 209.018L1763.49 356.33C1763.49 356.883 1763.04 357.331 1762.49 357.331L1761.95 357.331ZM1500 213.019 1492 209.018 1500 205.018Z"/><path d="M1167 279.025 1167 476.295 1165 476.295 1165 279.025ZM1170 474.962 1166 482.963 1162 474.962Z"/><text font-family="Calibri,Calibri_MSFontService,sans-serif" font-weight="400" font-size="18.67" transform="matrix(1 0 0 1.00009 1583.55 239)">Movement Commands</text><text font-family="Calibri,Calibri_MSFontService,sans-serif" font-weight="400" font-size="18.67" transform="matrix(1 0 0 1.00009 1583.55 262)">Servo Claw Commands</text><text font-family="Courier New,Courier New_MSFontService,sans-serif" font-weight="400" font-size="16.0028" transform="matrix(1 0 0 1.00009 992.385 389)">STATUS</text><text font-family="Courier New,Courier New_MSFontService,sans-serif" font-weight="400" font-size="16.0028" transform="matrix(1 0 0 1.00009 992.385 408)">COMMAND</text><text font-family="Courier New,Courier New_MSFontService,sans-serif" font-weight="400" font-size="16.0028" transform="matrix(1 0 0 1.00009 992.385 428)">LIDAR_MESSAGE</text><text font-family="Calibri,Calibri_MSFontService,sans-serif" font-weight="400" font-size="18.67" transform="matrix(1 0 0 1.00009 992.385 450)">Packet</text><path d="M1354 279.025 1354 410.554 1352 410.554 1352 279.025ZM1357 409.221 1353 417.222 1349 409.221Z"/><text font-family="Calibri,Calibri_MSFontService,sans-serif" font-weight="400" font-size="18.67" transform="matrix(1 0 0 1.00009 1359.09 353)">Servo Claw Status</text><text font-family="Calibri,Calibri_MSFontService,sans-serif" font-weight="400" font-size="18.67" transform="matrix(1 0 0 1.00009 1359.09 376)">IR Proximity Distance</text><text font-family="Calibri,Calibri_MSFontService,sans-serif" font-weight="400" font-size="18.67" transform="matrix(1 0 0 1.00009 1359.09 398)">Color Sensor Data</text><text font-family="Calibri,Calibri_MSFontService,sans-serif" font-weight="400" font-size="18.67" transform="matrix(1 0 0 1.00009 1170.79 354)">Lidar Scan Data</text><text font-family="Calibri,Calibri_MSFontService,sans-serif" font-weight="400" font-size="18.67" transform="matrix(1 0 0 1.00009 1170.79 377)">IR Proximity Distance</text><path d="M1167 523.046 1167 619.626 1165 619.626 1165 523.046ZM1170 618.293 1166 626.294 1162 618.293Z"/><text font-family="Calibri,Calibri_MSFontService,sans-serif" font-weight="400" font-size="18.67" transform="matrix(1 0 0 1.00009 1170.79 588)">Lidar Scan Data</text><path d="M1.00009-1.01074e-06 1.00019 97.222-0.99999 97.222-1.00009 1.01074e-06ZM4.00045 95.8885 0.000104996 103.889-4.00026 95.8885Z" transform="matrix(1 0 0 -1.00009 1316 625.944)"/><text font-family="Calibri,Calibri_MSFontService,sans-serif" font-weight="400" font-size="18.67" transform="matrix(1 0 0 1.00009 1325.5 580)">Image Map</text><text font-family="Calibri,Calibri_MSFontService,sans-serif" font-weight="400" font-size="18.67" transform="matrix(1 0 0 1.00009 1325.5 603)">Pose</text><path d="M1494 524.046 1494 620.626 1492 620.626 1492 524.046ZM1497 619.293 1493 627.294 1489 619.293Z"/><text font-family="Calibri,Calibri_MSFontService,sans-serif" font-weight="400" font-size="18.67" transform="matrix(1 0 0 1.00009 1497.75 589)">Lidar Scan Data</text><path d="M1.00009-1.01074e-06 1.00019 97.222-0.99999 97.222-1.00009 1.01074e-06ZM4.00045 95.8885 0.000104996 103.889-4.00026 95.8885Z" transform="matrix(1 0 0 -1.00009 1643 626.944)"/><text font-family="Calibri,Calibri_MSFontService,sans-serif" font-weight="400" font-size="18.67" transform="matrix(1 0 0 1.00009 1652.46 581)">Image Map</text><text font-family="Calibri,Calibri_MSFontService,sans-serif" font-weight="400" font-size="18.67" transform="matrix(1 0 0 1.00009 1652.46 604)">Pose</text><rect x="383" y="211.019" width="213" height="54.0047" stroke="#595959" stroke-width="2.00018" stroke-linejoin="round" stroke-miterlimit="10" fill="#DBEEF4"/><text font-family="Calibri,Calibri_MSFontService,sans-serif" font-weight="700" font-size="18.67" transform="matrix(1 0 0 1.00009 416.558 243)">Command Handler</text><path d="M489.162 188.658 489.542 204.284 487.542 204.332 487.162 188.706ZM484.195 190.112 488 182.016 492.194 189.918ZM492.509 202.878 488.704 210.974 484.511 203.072Z"/><path d="M1.00008-0.00397571 1.20625 51.8568-0.793914 51.8648-1.00008 0.00397571ZM4.20119 50.5114 0.232671 58.528-3.79946 50.5433Z" transform="matrix(1 0 0 -1.00009 466 409.564)"/><path d="M467 265.023 467 294.086 465 294.086 465 265.023ZM470 292.753 466 300.754 462 292.753Z"/><path d="M0-1.00009 20.1858-1.00009C20.7382-1.00009 21.1859-0.552333 21.1859 0L21.1859 265.269 19.1857 265.269 19.1857 0 20.1858 1.00009 0 1.00009ZM24.1862 263.936 20.1858 271.936 16.1855 263.936Z" transform="matrix(1 0 0 -1.00009 550 536.984)"/><path d="M0-1.00009 35.0339-1.00009C35.5862-1.00009 36.0339-0.552333 36.0339 0L36.0339 478.245 34.0338 478.245 34.0338 0 35.0339 1.00009 0 1.00009ZM39.0342 476.912 35.0339 484.912 31.0335 476.912Z" transform="matrix(1 0 0 -1.00009 551 749.978)"/><path d="M6.66725-1.00009 28.2966-1.00009C28.8489-1.00009 29.2967-0.552333 29.2967 0L29.2967 368.306 27.2965 368.306 27.2965 0 28.2966 1.00009 6.66725 1.00009ZM8.00071 4.00035 0 0 8.00071-4.00035ZM32.2969 366.973 28.2966 374.973 24.2962 366.973Z" transform="matrix(1 0 0 -1.00009 550 640.03)"/><rect x="583" y="201.018" width="16.0001" height="27.0023" stroke="#000000" stroke-width="2.00018" stroke-linejoin="round" stroke-miterlimit="10" fill="#FFFFFF"/><rect x="587" y="206.018" width="16.0001" height="6.00053" stroke="#000000" stroke-width="2.00018" stroke-linejoin="round" stroke-miterlimit="10" fill="#FFFFFF"/><rect x="587" y="217.019" width="16.0001" height="5.00046" stroke="#000000" stroke-width="2.00018" stroke-linejoin="round" stroke-miterlimit="10" fill="#FFFFFF"/></g></svg>